<?xml version="1.0" encoding="UTF-8"?>
<svg id="Layer_1" xmlns="http://www.w3.org/2000/svg" viewBox="0 0 800 800">
    <defs>
        <style>
            .cls-1,
            .cls-2 {
                fill: #fff;
            }

            .cls-3 {
                fill: #072434;
            }

            .cls-4 {
                fill: #062434;
            }

            .cls-2 {
                fill-rule: evenodd;
            }
        </style>
    </defs>
    <polygon class="cls-3" points="745.38 400 341.48 119.94 341.48 680.06 745.38 400" />
    <circle class="cls-4" cx="334.68" cy="400" r="280.06" />
    <g id="g11" transform="matrix(1.25,0,0,-1.25,-65.168592,425.16574)">
        <path id="path97" class="cls-2"
            d="M333.88,346.66c-30.71-1.44-190.79-5.51-262.07,25.35,19.28,11.39,39.92,23.18,64.22,36,70.58-33.03,162.24-44.99,246.44-49.58v-2.13c-16.33-2.02-34.46-5.51-48.59-9.64Zm71.98,12.96c-63.21,6.3-175.11,24.62-238.88,64.33,23.19,11.64,47.44,23.22,71.63,33.99,67.17-57.22,155.93-82.61,246.44-100.41v-2.09c-22.99,2.71-57.75,4.36-79.19,4.17Zm-133.89,112.66c30.6,12.65,62.21,24.29,89.16,32.05,32.46-64.52,91.16-115.71,199.36-162.59v-2.13c-138.95,38-225.91,65.21-288.52,132.67" />
        <path id="path99" class="cls-1"
            d="M289.1,326.53l-4.76-19.89-11.27,19.89h-13.52l-11.42-19.89-4.76,19.89h-14.18l9.32-30.82h15.68l12.12,21.1,12.17-21.1h15.53l9.32,30.82" />
        <path id="path101" class="cls-1"
            d="M182.86,295.71l-20.94,30.82h14.13l3.21-5.32h21.89l3.16,5.32h15.58l-20.94-30.82h-16.08Zm-.05,19.51l7.36-12.37,7.41,12.37" />
        <path id="path103" class="cls-1"
            d="M455.8,295.71l-20.94,30.82h14.13l3.16-5.32h21.94l3.16,5.32h15.58l-20.94-30.82h-16.08Zm-.05,19.51l7.36-12.37,7.41,12.37" />
        <path id="path105" class="cls-1" ´
            d="M536.14,326.53l-16.88-14.57v14.57h-14.43v-30.82h14.43v13.5l16.88-13.5h17.48l-19.43,14.73,20.79,16.09" />
        <path id="path107" class="cls-1"
            d="M408.71,326.53h16.33l-10.82-11.79c5.96-1.48,8.47-5.03,8.47-9.06,0-4.74-3.36-7.28-8.11-8.58-4.96-1.36-11.52-1.4-17.73-1.4h-22.09v30.82h14.28v-9.26h12.32l7.36,9.26Zm-19.69-24.71h9.02c7.36,0,10.37,1.42,10.37,4.55,0,2.5-2,4.03-4.51,4.59-1.85,.42-3.51,.5-6.36,.5h-8.52" />
        <path id="path109" class="cls-1" d="M343,302.76v23.77h-14.48v-23.77h-18.68l1.6-7.05h50.49l-1.6,7.05" />
        <path id="path111" class="cls-1"
            d="M564.94,296.73c1.85,0,3.46,.67,4.76,1.98,1.3,1.29,1.95,2.88,1.95,4.74s-.65,3.44-1.95,4.76c-1.3,1.31-2.91,1.98-4.76,1.98s-3.46-.67-4.81-1.98c-1.3-1.31-1.95-2.9-1.95-4.76s.65-3.44,2-4.74c1.3-1.31,2.91-1.98,4.76-1.98Zm7.76,6.7c0-2.15-.75-3.99-2.25-5.49-1.55-1.52-3.36-2.27-5.56-2.27s-3.96,.75-5.46,2.27c-1.55,1.52-2.3,3.36-2.3,5.49s.75,4.01,2.25,5.53c1.55,1.52,3.36,2.3,5.51,2.3s4.01-.77,5.56-2.3c1.5-1.52,2.25-3.36,2.25-5.53Zm-5.76-1.67c0,.65-.3,1.09-.9,1.31-.3,.13-.8,.19-1.45,.19h-1.35v-3.05h1.3c.85,0,1.45,.1,1.85,.31,.35,.21,.55,.63,.55,1.23Zm-5.16-2.61v8.53h1.45v-3.36h1.2c.8,0,1.35,.1,1.65,.27,.55,.33,.8,.98,.8,1.96v.67l.05,.27v.1s.05,.04,.05,.08h1.45l-.1-.1c0-.06-.05-.23-.05-.46-.05-.21-.05-.42-.05-.63v-.63c0-.42-.15-.86-.45-1.31-.3-.46-.8-.73-1.45-.83,.55-.08,.95-.23,1.25-.42,.55-.35,.85-.92,.85-1.69,0-1.06-.45-1.79-1.35-2.15-.5-.21-1.25-.31-2.35-.31" />
    </g>
</svg>