<?xml version="1.0" encoding="utf-8"?>
<!-- Generator: Adobe Illustrator 26.3.1, SVG Export Plug-In . SVG Version: 6.00 Build 0)  -->
<svg version="1.1" id="Layer_1" xmlns="http://www.w3.org/2000/svg" xmlns:xlink="http://www.w3.org/1999/xlink" x="0px" y="0px"
	 viewBox="0 0 65.4 65.4" style="enable-background:new 0 0 65.4 65.4;" xml:space="preserve">
<style type="text/css">
	.st0{fill:#072434;}
	.st1{fill:#062434;}
	.st2{fill-rule:evenodd;clip-rule:evenodd;fill:#FFFFFF;}
	.st3{fill:#FFFFFF;}
</style>
<g>
	<polygon class="st0" points="65.1,32.7 27.2,6.4 27.2,59 	"/>
	<circle class="st1" cx="26.6" cy="32.7" r="26.3"/>
	<g id="g11" transform="matrix(1.25,0,0,-1.25,-65.168592,425.16574)">
		<path id="path97" class="st2" d="M73.6,316.3c-2.3,0.1-14.2,0.4-19.4-1.9c1.4-0.8,3-1.7,4.8-2.7c5.2,2.4,12,3.3,18.3,3.7v0.2
			C76,315.7,74.7,316,73.6,316.3L73.6,316.3z M78.9,315.3c-4.7-0.5-13-1.8-17.7-4.8c1.7-0.9,3.5-1.7,5.3-2.5
			c5,4.2,11.6,6.1,18.3,7.4v0.2C83.1,315.5,80.5,315.3,78.9,315.3L78.9,315.3z M69,307c2.3-0.9,4.6-1.8,6.6-2.4
			c2.4,4.8,6.8,8.6,14.8,12.1v0.2C80.1,314,73.7,312,69,307"/>
		<path id="path99" class="st3" d="M70.3,317.8l-0.4,1.5l-0.8-1.5h-1l-0.8,1.5l-0.4-1.5h-1.1l0.7,2.3h1.2l0.9-1.6l0.9,1.6h1.2
			l0.7-2.3"/>
		<path id="path101" class="st3" d="M62.4,320.1l-1.6-2.3h1l0.2,0.4h1.6l0.2-0.4h1.2l-1.6,2.3H62.4L62.4,320.1z M62.4,318.6l0.5,0.9
			l0.5-0.9"/>
		<path id="path103" class="st3" d="M82.7,320.1l-1.6-2.3h1l0.2,0.4H84l0.2-0.4h1.2l-1.6,2.3H82.7L82.7,320.1z M82.6,318.6l0.5,0.9
			l0.5-0.9"/>
		<path id="path105" class="st3" d="M88.6,317.8l-1.3,1.1v-1.1h-1.1v2.3h1.1v-1l1.3,1h1.3l-1.4-1.1l1.5-1.2"/>
		<path id="path107" class="st3" d="M79.2,317.8h1.2l-0.8,0.9c0.4,0.1,0.6,0.4,0.6,0.7c0,0.4-0.2,0.5-0.6,0.6
			c-0.4,0.1-0.9,0.1-1.3,0.1h-1.6v-2.3h1.1v0.7h0.9L79.2,317.8L79.2,317.8z M77.7,319.6h0.7c0.5,0,0.8-0.1,0.8-0.3
			c0-0.2-0.1-0.3-0.3-0.3c-0.1,0-0.3,0-0.5,0h-0.6"/>
		<path id="path109" class="st3" d="M74.3,319.6v-1.8h-1.1v1.8h-1.4l0.1,0.5h3.7l-0.1-0.5"/>
		<path id="path111" class="st3" d="M90.7,320c0.1,0,0.3,0,0.4-0.1c0.1-0.1,0.1-0.2,0.1-0.4c0-0.1,0-0.3-0.1-0.4
			c-0.1-0.1-0.2-0.1-0.4-0.1c-0.1,0-0.3,0-0.4,0.1c-0.1,0.1-0.1,0.2-0.1,0.4c0,0.1,0,0.3,0.1,0.4C90.5,320,90.6,320,90.7,320
			L90.7,320z M91.3,319.5c0,0.2-0.1,0.3-0.2,0.4c-0.1,0.1-0.2,0.2-0.4,0.2s-0.3-0.1-0.4-0.2c-0.1-0.1-0.2-0.2-0.2-0.4
			s0.1-0.3,0.2-0.4c0.1-0.1,0.2-0.2,0.4-0.2s0.3,0.1,0.4,0.2C91.3,319.2,91.3,319.4,91.3,319.5L91.3,319.5z M90.9,319.6
			C90.9,319.6,90.9,319.6,90.9,319.6c-0.1-0.1-0.1-0.1-0.2-0.1h-0.1v0.2h0.1C90.8,319.8,90.8,319.7,90.9,319.6
			C90.9,319.7,90.9,319.7,90.9,319.6L90.9,319.6z M90.5,319.8v-0.6h0.1v0.2h0.1c0.1,0,0.1,0,0.1,0c0,0,0.1-0.1,0.1-0.1v0l0,0v0
			c0,0,0,0,0,0H91l0,0c0,0,0,0,0,0c0,0,0,0,0,0v0c0,0,0,0.1,0,0.1c0,0-0.1,0.1-0.1,0.1c0,0,0.1,0,0.1,0c0,0,0.1,0.1,0.1,0.1
			c0,0.1,0,0.1-0.1,0.2c0,0-0.1,0-0.2,0"/>
	</g>
</g>
</svg>
